# xmcd
#
# Track frame offsets:
#	150
#	10150
#	20337
#	30987
#	40925
#	46625
#	57375
#	68287
#	78200
#	90787
#	100075
#	111675
#	122812
#	131887
#	141225
#	149212
#	159300
#	171537
#	182612
#	194462
#	205525
#	213650
#	221162
#	233150
#
# Disc length: 3251 seconds
#
# Revision: 1
# Processed by: cddbd v1.5.2PL0 Copyright (c) Steve Scherf et al.
# Submitted via: audiograbber 1.83.01
#
DISCID=530cb118
DTITLE=Johnny Cash - A Man And His Music CD1
DYEAR=1900
DGENRE=
TTITLE0=Get Ryhthm
TTITLE1=There You Go
TTITLE2=Train Of Love
TTITLE3=Goodbye Little Darling
TTITLE4=My Treasure
TTITLE5=Wide Open Road
TTITLE6=Cry Cry Cry
TTITLE7=Hey Porter
TTITLE8=Folsom Prison Blues
TTITLE9=Luthers Boogie
TTITLE10=So doggone Lonesome
TTITLE11=Mean Eyed Cat
TTITLE12=I Couldn't Keep From Crying
TTITLE13=New Mexico
TTITLE14=Sugartime
TTITLE15=Straight A's In Love
TTITLE16=Next In Line
TTITLE17=Don't Make Me Go
TTITLE18=Home Of The Blue
TTITLE19=Oh Lonesome Me
TTITLE20=Guess Things Happen That Way
TTITLE21=Come In Stranger
TTITLE22=Give Me Love To Rose
TTITLE23=Belshazar
EXTD=
EXTT0=
EXTT1=
EXTT2=
EXTT3=
EXTT4=
EXTT5=
EXTT6=
EXTT7=
EXTT8=
EXTT9=
EXTT10=
EXTT11=
EXTT12=
EXTT13=
EXTT14=
EXTT15=
EXTT16=
EXTT17=
EXTT18=
EXTT19=
EXTT20=
EXTT21=
EXTT22=
EXTT23=
PLAYORDER=
